<svg width="16" height="21" viewBox="0 0 16 21" fill="none" xmlns="http://www.w3.org/2000/svg">
<path d="M8.15604 0.601546L8.15592 0.601543C8.05222 0.599486 7.94781 0.599486 7.84407 0.601543L7.84395 0.601546C5.43056 0.64894 3.27106 1.88688 2.05591 3.90558C0.813989 5.96878 0.780765 8.43778 1.96462 10.5238L7.37233 20.0524L7.37382 20.055L7.37397 20.0553L7.37435 20.0559L8.15604 0.601546ZM8.15604 0.601546C10.5695 0.64894 12.729 1.88688 13.9441 3.90557L14.4581 3.59614M8.15604 0.601546L14.4581 3.59614M14.4581 3.59614L13.9441 3.90557C15.186 5.96878 15.2192 8.43778 14.0354 10.5238L8.62771 20.0524L8.62623 20.0551L8.6261 20.0553L8.62576 20.0558L8.62554 20.0562L14.4581 3.59614ZM8.00008 20.4C7.72814 20.4 7.50076 20.2674 7.37455 20.0562L8.62551 20.0563C8.49933 20.2674 8.27194 20.4 8.00008 20.4ZM4.33238 6.56251C4.33238 8.54355 5.99885 10.1156 7.99999 10.1156C10.0012 10.1156 11.6676 8.54355 11.6676 6.56251C11.6676 4.58148 10.0011 3.00939 7.99999 3.00939C5.99885 3.00939 4.33238 4.58148 4.33238 6.56251Z" stroke="#015989" stroke-width="1.2"/>
</svg>
