<svg width="19" height="19" viewBox="0 0 19 19" fill="none" xmlns="http://www.w3.org/2000/svg">
<path d="M18.4468 3.03087C18.4457 3.03087 18.4445 3.03072 18.4434 3.03072H13.3965V2.4426C13.3965 1.46976 12.6473 0.678253 11.7266 0.678253H7.27344C6.35266 0.678253 5.60352 1.46976 5.60352 2.4426V3.03072H0.556641C0.246719 3.03072 0 3.29905 0 3.61884V16.5574C0 17.5302 0.749146 18.3217 1.66992 18.3217H17.3301C18.2509 18.3217 19 17.5302 19 16.5574V3.63124C19 3.63048 19 3.62971 19 3.62894C18.9787 3.24269 18.7539 3.03302 18.4468 3.03087ZM6.7168 2.4426C6.7168 2.11837 6.96656 1.85449 7.27344 1.85449H11.7266C12.0334 1.85449 12.2832 2.11837 12.2832 2.4426V3.03072H6.7168V2.4426ZM17.671 4.20695L15.9424 9.68593C15.8666 9.92654 15.6544 10.0881 15.4145 10.0881H12.2832V9.5C12.2832 9.17516 12.034 8.91188 11.7266 8.91188H7.27344C6.96598 8.91188 6.7168 9.17516 6.7168 9.5V10.0881H3.58555C3.34564 10.0881 3.13342 9.92654 3.05761 9.68593L1.32898 4.20695H17.671ZM11.1699 10.0881V11.2643H7.83008V10.0881H11.1699ZM17.8867 16.5574C17.8867 16.8816 17.637 17.1455 17.3301 17.1455H1.66992C1.36304 17.1455 1.11328 16.8816 1.11328 16.5574V7.24295L2.00144 10.0579C2.22903 10.7796 2.86568 11.2643 3.58555 11.2643H6.7168V11.8525C6.7168 12.1773 6.96598 12.4406 7.27344 12.4406H11.7266C12.034 12.4406 12.2832 12.1773 12.2832 11.8525V11.2643H15.4145C16.1343 11.2643 16.771 10.7796 16.9986 10.0579L17.8867 7.24295V16.5574Z" fill="#015989"/>
</svg>
