<svg width="17" height="17" viewBox="0 0 17 17" fill="none" xmlns="http://www.w3.org/2000/svg">
<path d="M16.9579 12.6395C16.9081 12.4516 16.8196 12.2762 16.698 12.1247C16.5763 11.9732 16.4242 11.8488 16.2516 11.7598L12.6264 9.88008C12.3339 9.7249 11.9954 9.68009 11.6726 9.75384C11.3498 9.82759 11.0642 10.015 10.868 10.2818L10.2819 11.0853C10.2518 11.1271 10.2075 11.1564 10.1573 11.1677C10.1071 11.179 10.0545 11.1716 10.0094 11.1469C9.14739 10.6561 8.35825 10.0471 7.66486 9.33758C6.95582 8.64374 6.3472 7.85412 5.85667 6.99165C5.83193 6.9465 5.82453 6.89386 5.83587 6.84364C5.8472 6.79341 5.87649 6.74906 5.91821 6.71893L6.71827 6.13245C6.98496 5.93611 7.17223 5.65039 7.24593 5.32741C7.31963 5.00443 7.27486 4.6657 7.11977 4.37299L5.25296 0.748522C5.16331 0.575529 5.03823 0.42338 4.88589 0.30199C4.73354 0.1806 4.55734 0.092694 4.36877 0.0440005C4.1802 -0.00469295 3.98349 -0.0130809 3.79146 0.0193833C3.59943 0.0518475 3.41639 0.124435 3.25428 0.232416L0.977186 1.75727C0.657445 1.9703 0.399262 2.26366 0.228501 2.60797C0.0577399 2.95227 -0.019603 3.33543 0.00422028 3.71906C0.0343581 4.36769 0.121638 5.01239 0.265046 5.64567C0.883406 8.03266 2.37509 10.4871 4.44704 12.5632C6.51899 14.6394 8.97485 16.1261 11.3604 16.739C11.9933 16.8825 12.6376 16.9698 13.2858 17H13.4323C13.79 16.9992 14.142 16.9109 14.4577 16.7427C14.7733 16.5746 15.0431 16.3317 15.2434 16.0352L16.7615 13.7567C16.8711 13.5949 16.9452 13.4117 16.979 13.2191C17.0129 13.0266 17.0057 12.829 16.9579 12.6395ZM15.7856 13.1028L14.2763 15.3842C14.1762 15.5322 14.0391 15.6514 13.8787 15.7301C13.7184 15.8088 13.5402 15.8442 13.362 15.8329C12.7871 15.8063 12.2155 15.7308 11.6534 15.6071C9.46719 15.0382 7.20475 13.6629 5.27934 11.7275C3.35392 9.79211 1.9736 7.53708 1.40506 5.34949C1.28042 4.78716 1.20395 4.21522 1.17647 3.63989C1.16476 3.46189 1.20002 3.28393 1.27872 3.12387C1.35741 2.9638 1.47678 2.82725 1.62485 2.72791L3.90195 1.20891C3.93661 1.18569 3.97745 1.17343 4.01917 1.17372H4.07485C4.10371 1.18125 4.13064 1.19481 4.15388 1.21351C4.17712 1.23221 4.19613 1.25563 4.20966 1.28222L6.08526 4.90963C6.10857 4.95461 6.11518 5.00641 6.10391 5.05581C6.09264 5.10521 6.06422 5.149 6.02371 5.17941L5.22365 5.76589C4.95236 5.96786 4.76439 6.26226 4.69527 6.59347C4.62615 6.92468 4.68068 7.26975 4.84854 7.56347C5.39096 8.5122 6.06155 9.38154 6.84136 10.1469C7.60623 10.9273 8.47505 11.5983 9.42323 12.141C9.71677 12.3089 10.0616 12.3635 10.3926 12.2943C10.7236 12.2252 11.0179 12.0371 11.2197 11.7656L11.8058 10.9621C11.8362 10.9216 11.88 10.8932 11.9294 10.8819C11.9787 10.8706 12.0305 10.8772 12.0754 10.9006L15.7006 12.7773C15.7272 12.7912 15.7505 12.8105 15.7691 12.834C15.7877 12.8575 15.8012 12.8846 15.8086 12.9137C15.8161 12.9427 15.8174 12.973 15.8124 13.0025C15.8074 13.0321 15.7963 13.0602 15.7797 13.0852L15.7856 13.1028Z" fill="#015989"/>
</svg>
