<svg width="18" height="15" viewBox="0 0 18 15" fill="none" xmlns="http://www.w3.org/2000/svg">
<path d="M8.85783 8.19625L8.85664 8.19518C7.60521 7.06789 3.44009 3.52975 0.947834 1.4186C1.10566 1.29257 1.29831 1.225 1.49999 1.225H16.5C16.7017 1.225 16.8943 1.29257 17.0522 1.4186C14.5598 3.52979 10.3947 7.06828 9.14221 8.19668L9.14161 8.19722C9.0573 8.27339 9.01205 8.27462 8.99998 8.27462C8.98876 8.27462 8.9433 8.27366 8.85783 8.19625ZM0.795268 1.57298L0.795276 1.57297L0.795268 1.57298Z" stroke="#015989" stroke-width="1.2"/>
<path d="M8.5683 8.29169L8.97924 8.71743L9.41065 8.31245L9 7.875L9.41069 8.31242L9.41074 8.31237L9.41087 8.31225L9.41122 8.31192L9.41235 8.31085L9.41627 8.30716L9.43066 8.29354L9.48489 8.24176C9.53206 8.19649 9.60089 8.1299 9.68908 8.04321C9.86543 7.86984 10.1193 7.61597 10.4321 7.29129C11.556 6.12475 14.5696 3.59853 17.0214 1.62695C17.1394 1.70996 17.2889 1.81415 17.4 1.8848V12.6502C17.4 13.3515 16.92 13.775 16.5 13.775H1.50001C1.08001 13.775 0.6 13.3515 0.6 12.6502V1.95104C0.688195 1.94112 0.791976 1.93256 0.897072 1.92719C1.02295 1.92075 1.13715 1.9196 1.22081 1.92369L1.38882 2.06437C1.56386 2.21104 1.8153 2.42198 2.12071 2.67892C2.73161 3.19286 3.55814 3.8906 4.42107 4.62608C6.16203 6.10991 8.00771 7.71092 8.5683 8.29169ZM1.5 1.375L1.11553 1.83541C1.11551 1.83539 1.11549 1.83538 1.11547 1.83536L1.5 1.375Z" stroke="#015989" stroke-width="1.2"/>
</svg>
