<svg width="19" height="19" viewBox="0 0 19 19" fill="none" xmlns="http://www.w3.org/2000/svg">
<path d="M17.9387 17.2212H17.2212V9.32812C17.2211 9.18473 17.1781 9.04464 17.0978 8.92588C17.0174 8.80711 16.9033 8.71512 16.7702 8.66174L9.59477 5.79155C9.41803 5.72083 9.22044 5.72322 9.04546 5.79818C8.87049 5.87315 8.73246 6.01455 8.66174 6.19129C8.59102 6.36803 8.59341 6.56562 8.66838 6.7406C8.74334 6.91557 8.88475 7.0536 9.06148 7.12432L15.7861 9.81405V11.4808H10.7632C10.5729 11.4808 10.3904 11.5564 10.2558 11.6909C10.1213 11.8255 10.0457 12.008 10.0457 12.1983C10.0457 12.3886 10.1213 12.5711 10.2558 12.7057C10.3904 12.8403 10.5729 12.9159 10.7632 12.9159H15.7861V14.351H10.7632C10.5729 14.351 10.3904 14.4266 10.2558 14.5611C10.1213 14.6957 10.0457 14.8782 10.0457 15.0685C10.0457 15.2588 10.1213 15.4413 10.2558 15.5759C10.3904 15.7105 10.5729 15.7861 10.7632 15.7861H15.7861V17.2212H8.55317L7.17304 0.657992C7.1581 0.478611 7.07629 0.311397 6.94383 0.189516C6.81137 0.0676352 6.63793 -9.08068e-06 6.45793 9.14319e-10H3.58774C3.40774 -9.08068e-06 3.23431 0.0676352 3.10185 0.189516C2.96939 0.311397 2.88757 0.478611 2.87263 0.657992L1.4925 17.2212H0.717548C0.527242 17.2212 0.344731 17.2968 0.210165 17.4313C0.0755986 17.5659 0 17.7484 0 17.9387C0 18.129 0.0755986 18.3115 0.210165 18.4461C0.344731 18.5807 0.527242 18.6562 0.717548 18.6562H17.9387C18.129 18.6562 18.3115 18.5807 18.4461 18.4461C18.5807 18.3115 18.6562 18.129 18.6562 17.9387C18.6562 17.7484 18.5807 17.5659 18.4461 17.4313C18.3115 17.2968 18.129 17.2212 17.9387 17.2212ZM5.79779 1.4351L6.03695 4.30529H4.00865L4.24788 1.4351H5.79779ZM3.88911 5.74038H6.15656L7.1132 17.2212H2.93248L3.88911 5.74038Z" fill="#015989"/>
</svg>
