<svg width="17" height="17" viewBox="0 0 17 17" fill="none" xmlns="http://www.w3.org/2000/svg">
<path d="M2.35151 3.15126L2.34036 3.16824C1.32347 4.34147 0.662891 5.78094 0.436792 7.31726C0.208949 8.86544 0.431959 10.4464 1.07916 11.8713C1.72636 13.2961 2.77036 14.5045 4.08634 15.3519C5.40232 16.1993 6.9346 16.65 8.5 16.65C10.0654 16.65 11.5977 16.1993 12.9137 15.3519C14.2296 14.5045 15.2736 13.2961 15.9208 11.8713C16.568 10.4464 16.791 8.86544 16.5632 7.31726C16.3354 5.76909 15.6663 4.31927 14.636 3.14112L14.6166 3.11889L14.6147 3.11793C14.5992 3.09912 14.582 3.08175 14.5633 3.06605C13.8016 2.21323 12.8685 1.53051 11.825 1.0625C10.7777 0.592817 9.64284 0.35 8.495 0.35C7.34716 0.35 6.21232 0.592817 5.16505 1.0625C4.1213 1.53059 3.18809 2.21347 2.42631 3.0665C2.39751 3.09105 2.37232 3.11959 2.35151 3.15126ZM13.2243 8.89903H15.8341C15.7525 10.4294 15.1917 11.8958 14.2308 13.0906C13.7292 12.8073 13.2018 12.5722 12.6558 12.3887C13.0054 11.2572 13.1967 10.0829 13.2243 8.89903ZM12.3908 13.1438C12.8364 13.2931 13.2686 13.4795 13.683 13.7011C12.9265 14.4557 12.0157 15.035 11.0153 15.4007C11.5584 14.8114 12.0278 14.0436 12.3908 13.1438ZM2.76367 13.0914C1.80232 11.8965 1.2413 10.4298 1.15966 8.89903H3.76947C3.79695 10.0833 3.98825 11.2581 4.33794 12.3899C3.79217 12.5734 3.26504 12.8083 2.76367 13.0914ZM1.15975 8.09922C1.24265 6.55977 1.8104 5.08548 2.78212 3.88762C3.28057 4.16801 3.8043 4.40089 4.34636 4.58319C3.99133 5.72265 3.79716 6.90608 3.76947 8.09922H1.15975ZM8.89687 8.09922V5.22749C9.90949 5.2019 10.9159 5.06092 11.8965 4.80727C12.2238 5.87511 12.403 6.98274 12.4293 8.09922H8.89687ZM8.89687 4.42741V1.19137C9.97781 1.39975 10.9577 2.45015 11.6191 4.05213C10.7282 4.27658 9.81531 4.40244 8.89687 4.42741ZM8.09688 1.19137V4.42741C7.17844 4.40245 6.26556 4.27659 5.37469 4.05213C6.03604 2.45015 7.01594 1.39975 8.09688 1.19137ZM5.0974 4.80732C6.078 5.06092 7.08433 5.20189 8.09688 5.22749V8.09922H4.56929C4.59406 6.98297 4.77174 5.87536 5.0974 4.80732ZM5.09739 12.1658C4.77435 11.1058 4.59682 10.0068 4.56965 8.89903H8.09688V11.7434C7.08423 11.7697 6.07789 11.9114 5.09739 12.1658ZM8.09688 12.5433V15.8068C7.01036 15.5968 6.02139 14.5365 5.36381 12.9212C6.25811 12.695 7.1747 12.5683 8.09688 12.5433ZM8.89687 15.8068V12.5433C9.81905 12.5683 10.7356 12.695 11.6299 12.9212C10.9724 14.5365 9.98339 15.5968 8.89687 15.8068ZM11.8963 12.1646C10.9158 11.9106 9.90947 11.7692 8.89687 11.7433V8.89903H12.4241C12.3968 10.0064 12.2193 11.105 11.8963 12.1646ZM15.834 8.09922H13.2243C13.1966 6.90608 13.0024 5.72265 12.6474 4.58319C13.1895 4.40088 13.7132 4.16801 14.2116 3.88762C15.1834 5.08548 15.7511 6.55977 15.834 8.09922ZM12.378 3.82976C12.0174 2.94193 11.554 2.18151 11.0145 1.59773C12.0061 1.96075 12.9096 2.53382 13.662 3.27952C13.25 3.49807 12.8205 3.68212 12.378 3.82976ZM4.6169 3.82974C4.17444 3.6821 3.74501 3.49806 3.33303 3.27951C4.08446 2.53459 4.98671 1.96189 5.97697 1.59872C5.43862 2.18131 4.97687 2.94247 4.6169 3.82974ZM4.60542 13.1438C4.96716 14.0414 5.43255 14.8117 5.97579 15.3997C4.97732 15.0337 4.06836 14.4547 3.31323 13.7011C3.72759 13.4796 4.15983 13.2931 4.60542 13.1438Z" fill="#015989" stroke="#015989" stroke-width="0.3"/>
</svg>
